<svg xmlns="http://www.w3.org/2000/svg" style="display:none"><symbol id="hero-at-solid-full" viewBox="64 64 512 512"><path d="M320 128c-106 0-192 86-192 192s86 192 192 192c17.7 0 32 14.3 32 32s-14.3 32-32 32C178.6 576 64 461.4 64 320S178.6 64 320 64s256 114.6 256 256v32c0 53-43 96-96 96-29.3 0-55.6-13.2-73.2-33.9-22.8 21-53.3 33.9-86.8 33.9-70.7 0-128-57.3-128-128s57.3-128 128-128c27.9 0 53.7 8.9 74.7 24.1 5.7-5 13.1-8.1 21.3-8.1 17.7 0 32 14.3 32 32v112c0 17.7 14.3 32 32 32s32-14.3 32-32v-32c0-106-86-192-192-192m64 192c0-35.3-28.7-64-64-64s-64 28.7-64 64 28.7 64 64 64 64-28.7 64-64" /></symbol><symbol id="hero-bars-solid-full" viewBox="96 128 448 384"><path d="M96 160c0-17.7 14.3-32 32-32h384c17.7 0 32 14.3 32 32s-14.3 32-32 32H128c-17.7 0-32-14.3-32-32m0 160c0-17.7 14.3-32 32-32h384c17.7 0 32 14.3 32 32s-14.3 32-32 32H128c-17.7 0-32-14.3-32-32m448 160c0 17.7-14.3 32-32 32H128c-17.7 0-32-14.3-32-32s14.3-32 32-32h384c17.7 0 32 14.3 32 32" /></symbol></svg>